<svg id="Layer_1" data-name="Layer 1" xmlns="http://www.w3.org/2000/svg" xmlns:xlink="http://www.w3.org/1999/xlink" viewBox="0 0 200 36"><defs><style>.cls-1{fill:#28696a;}.cls-2{fill:url(#linear-gradient);}.cls-3{fill:url(#linear-gradient-2);}.cls-4{fill:url(#linear-gradient-3);}.cls-5{fill:url(#linear-gradient-4);}.cls-6{fill:url(#linear-gradient-5);}.cls-7{fill:#213058;}</style><linearGradient id="linear-gradient" x1="7.88" y1="3.86" x2="1.12" y2="27.5" gradientUnits="userSpaceOnUse"><stop offset="0" stop-color="#28696a"/><stop offset="0.08" stop-color="#235c5d"/><stop offset="0.36" stop-color="#143435"/><stop offset="0.62" stop-color="#091818"/><stop offset="0.84" stop-color="#020606"/><stop offset="1"/></linearGradient><linearGradient id="linear-gradient-2" x1="790.31" y1="3.86" x2="783.56" y2="27.5" gradientTransform="matrix(-1, 0, 0, 1, 817.5, 0)" xlink:href="#linear-gradient"/><linearGradient id="linear-gradient-3" x1="790.25" y1="-64.12" x2="783.5" y2="-40.49" gradientTransform="translate(817.5 -31.98) rotate(180)" xlink:href="#linear-gradient"/><linearGradient id="linear-gradient-4" x1="1296.86" y1="-64.08" x2="1290.13" y2="-40.54" gradientTransform="matrix(1, 0, 0, -1, -1289, -31.98)" xlink:href="#linear-gradient"/><linearGradient id="linear-gradient-5" x1="17.53" y1="3.89" x2="17.53" y2="31.93" gradientUnits="userSpaceOnUse"><stop offset="0" stop-color="#28696a"/><stop offset="0.15" stop-color="#367374" stop-opacity="0.95"/><stop offset="0.29" stop-color="#619192" stop-opacity="0.79"/><stop offset="0.42" stop-color="#a9c3c4" stop-opacity="0.52"/><stop offset="0.53" stop-color="#fff" stop-opacity="0.2"/><stop offset="0.55" stop-color="#f6f9f9" stop-opacity="0.23"/><stop offset="0.73" stop-color="#85aaab" stop-opacity="0.65"/><stop offset="0.89" stop-color="#407a7b" stop-opacity="0.91"/><stop offset="1" stop-color="#28696a"/></linearGradient></defs><path class="cls-1" d="M27.79,21H23.44V15h4.29a7.29,7.29,0,1,0-7.28-7.28v4.29H14.61V7.76A7.28,7.28,0,1,0,7.34,15h4.29V20.9H7.27a7.29,7.29,0,1,0,7.28,7.28V23.89h6v4.35A7.27,7.27,0,1,0,27.79,21ZM23.44,7.76a4.29,4.29,0,1,1,4.29,4.29H23.44ZM11.56,28.18a4.29,4.29,0,1,1-4.29-4.29h4.29Zm.07-16.13H7.34a4.3,4.3,0,1,1,4.29-4.29Zm8.83,8.54a.38.38,0,0,1-.37.37H15a.38.38,0,0,1-.37-.37V15.41A.38.38,0,0,1,15,15h5.12a.38.38,0,0,1,.37.37Zm7.33,12a4.29,4.29,0,0,1-4.29-4.3V24h4.29a4.3,4.3,0,0,1,0,8.59Z"/><path class="cls-2" d="M7.4,15h4.21v-3H7.32a4.3,4.3,0,0,1,0-8.59v-3A7.29,7.29,0,0,0,7.4,15Z"/><path class="cls-3" d="M27.66,15H23.45v-3h4.3a4.3,4.3,0,0,0,0-8.59v-3A7.29,7.29,0,0,1,27.66,15Z"/><path class="cls-4" d="M27.73,21H23.51v3h4.3a4.3,4.3,0,0,1,0,8.59v3A7.29,7.29,0,0,0,27.73,21Z"/><path class="cls-5" d="M7.4,21h4.21v3H7.32a4.3,4.3,0,0,0,0,8.59v2.93A7.26,7.26,0,0,1,7.4,21Z"/><path class="cls-6" d="M25.24,4.24h-3.9v5.92H13.72V4.24H9.82c0,.1,0,.21,0,.32v5.6h0v3.9h0v7.63h0V31.76h3.82V25.59h7.78v6.17h3.83v-10h0V14.06h0v-3.9h0V4.56C25.23,4.45,25.24,4.34,25.24,4.24Zm-3.89,9.82v7.72H13.72V14.06Z"/><path class="cls-7" d="M46.83,7.38V28.62H42.39V7.38ZM58.51,16.1v3.57H44.61V16.1Zm2.12-8.72V28.62H56.19V7.38Z"/><path class="cls-7" d="M75.34,7.06a10.65,10.65,0,0,1,5.43,1.32,8.85,8.85,0,0,1,3.53,3.76A12.93,12.93,0,0,1,85.53,18a12.93,12.93,0,0,1-1.23,5.86,8.85,8.85,0,0,1-3.53,3.76,10.65,10.65,0,0,1-5.43,1.32,10.8,10.8,0,0,1-5.46-1.32,8.87,8.87,0,0,1-3.54-3.76A12.93,12.93,0,0,1,65.11,18a12.93,12.93,0,0,1,1.23-5.86,8.87,8.87,0,0,1,3.54-3.76A10.8,10.8,0,0,1,75.34,7.06Zm0,3.64a5.44,5.44,0,0,0-3,.83A5.13,5.13,0,0,0,70.37,14a10.68,10.68,0,0,0-.66,4,10.68,10.68,0,0,0,.66,4,5.13,5.13,0,0,0,1.93,2.48,5.44,5.44,0,0,0,3,.83,5.38,5.38,0,0,0,3-.83A5.21,5.21,0,0,0,80.27,22a10.68,10.68,0,0,0,.66-4,10.68,10.68,0,0,0-.66-4,5.21,5.21,0,0,0-1.91-2.48A5.38,5.38,0,0,0,75.34,10.7Z"/><path class="cls-7" d="M94.45,25.05h11.19v3.57H90V7.38h4.44Z"/><path class="cls-7" d="M113.78,7.38V28.62h-4.44V7.38Z"/><path class="cls-7" d="M127.52,7.38c3.32,0,5.9.92,7.72,2.75S138,14.59,138,18s-.91,6-2.73,7.85-4.4,2.77-7.72,2.77h-8.21V7.38Zm-.23,17.7a5.6,5.6,0,0,0,4.55-1.82A8,8,0,0,0,133.37,18a8,8,0,0,0-1.53-5.26,5.6,5.6,0,0,0-4.55-1.82h-3.54V25.08Z"/><path class="cls-7" d="M160.11,28.62h-4.6l-1.77-5.18H145.6l-1.77,5.18h-4.54l7.76-21.24h5.3ZM146.6,20.16h6.14l-3.09-9.27Z"/><path class="cls-7" d="M165.51,26.62l-.8-1.54h14.86v3.54H161.91V25.27l13.7-15.89.78,1.54H162.17V7.38h17v3.35Z"/><path class="cls-7" d="M183.62,28.62V7.38h15.93V11H188.06v5.28h9v3.41h-9v5.41H200v3.57Z"/></svg>